<svg xmlns="http://www.w3.org/2000/svg" xmlns:xlink="http://www.w3.org/1999/xlink" width="160" zoomAndPan="magnify"
  viewBox="0 0 120 48" height="64" preserveAspectRatio="xMidYMid meet" version="1.0">
  <defs>
    <g />
    <clipPath id="7bcdc8cccc">
      <path d="M 54 1 L 118.773438 1 L 118.773438 45 L 54 45 Z M 54 1 " clip-rule="nonzero" />
    </clipPath>
    <clipPath id="c471e4efa4">
      <path d="M 1.222656 1 L 66 1 L 66 46 L 1.222656 46 Z M 1.222656 1 " clip-rule="nonzero" />
    </clipPath>
    <clipPath id="7b9e6d89b5">
      <path d="M 21 20 L 35 20 L 35 44 L 21 44 Z M 21 20 " clip-rule="nonzero" />
    </clipPath>
    <clipPath id="87112e53cc">
      <path
        d="M 21.914062 22.003906 L 25.34375 20.570312 L 34.449219 42.378906 L 31.019531 43.808594 Z M 21.914062 22.003906 "
        clip-rule="nonzero" />
    </clipPath>
    <clipPath id="6093b24a8c">
      <path
        d="M 21.914062 22.003906 L 25.34375 20.570312 L 34.445312 42.367188 L 31.015625 43.800781 Z M 21.914062 22.003906 "
        clip-rule="nonzero" />
    </clipPath>
    <clipPath id="1e893bf66d">
      <path d="M 32 19 L 47 19 L 47 43 L 32 43 Z M 32 19 " clip-rule="nonzero" />
    </clipPath>
    <clipPath id="e8a417c77e">
      <path
        d="M 36.464844 42.070312 L 32.253906 40.070312 L 42.027344 19.480469 L 46.238281 21.476562 Z M 36.464844 42.070312 "
        clip-rule="nonzero" />
    </clipPath>
    <clipPath id="33ae133bda">
      <path
        d="M 36.464844 42.070312 L 32.253906 40.070312 L 42.019531 19.492188 L 46.230469 21.492188 Z M 36.464844 42.070312 "
        clip-rule="nonzero" />
    </clipPath>
    <clipPath id="d404330657">
      <path
        d="M 34.445312 29.511719 L 49.082031 29.511719 L 49.082031 45.523438 L 34.445312 45.523438 Z M 34.445312 29.511719 "
        clip-rule="nonzero" />
    </clipPath>
    <clipPath id="45697c8a85">
      <path d="M 41.761719 29.511719 L 49.082031 45.492188 L 34.445312 45.492188 Z M 41.761719 29.511719 "
        clip-rule="nonzero" />
    </clipPath>
    <clipPath id="191ccacb16">
      <path
        d="M 18.820312 29.976562 L 31.929688 29.976562 L 31.929688 45.492188 L 18.820312 45.492188 Z M 18.820312 29.976562 "
        clip-rule="nonzero" />
    </clipPath>
    <clipPath id="5e26fa4963">
      <path d="M 25.375 29.976562 L 31.929688 45.492188 L 18.820312 45.492188 Z M 25.375 29.976562 "
        clip-rule="nonzero" />
    </clipPath>
    <clipPath id="8ebbedb2d1">
      <path
        d="M 27.210938 24.367188 L 39.152344 24.367188 L 39.152344 39.570312 L 27.210938 39.570312 Z M 27.210938 24.367188 "
        clip-rule="nonzero" />
    </clipPath>
    <clipPath id="949a03c536">
      <path d="M 33.179688 39.570312 L 27.210938 24.378906 L 39.152344 24.378906 Z M 33.179688 39.570312 "
        clip-rule="nonzero" />
    </clipPath>
  </defs>
  <g clip-path="url(#7bcdc8cccc)">
    <g fill="#111010" fill-opacity="1">
      <g transform="translate(54.471578, 44.728258)">
        <g>
          <path
            d="M 18.390625 -43.1875 L 27.59375 -43.1875 L 32.109375 -29.359375 L 36.609375 -43.1875 L 45.875 -43.1875 L 38.5 -23.09375 L 42.890625 -11.578125 L 53.734375 -43.25 L 64.640625 -43.25 L 47.765625 0 L 39.109375 0 L 32.109375 -16.9375 L 25.15625 0 L 16.453125 0 L -0.359375 -43.25 L 10.484375 -43.25 L 21.390625 -11.578125 L 25.640625 -23.09375 Z M 18.390625 -43.1875 " />
        </g>
      </g>
    </g>
  </g>
  <g clip-path="url(#c471e4efa4)">
    <g fill="#111010" fill-opacity="1">
      <g transform="translate(65.521681, 1.845229)">
        <g>
          <path
            d="M -18.390625 43.1875 L -27.59375 43.1875 L -32.109375 29.359375 L -36.609375 43.1875 L -45.875 43.1875 L -38.5 23.09375 L -42.890625 11.578125 L -53.734375 43.25 L -64.640625 43.25 L -47.765625 0 L -39.109375 0 L -32.109375 16.9375 L -25.15625 0 L -16.453125 0 L 0.359375 43.25 L -10.484375 43.25 L -21.390625 11.578125 L -25.640625 23.09375 Z M -18.390625 43.1875 " />
        </g>
      </g>
    </g>
  </g>
  <g clip-path="url(#7b9e6d89b5)">
    <g clip-path="url(#87112e53cc)">
      <g clip-path="url(#6093b24a8c)">
        <path fill="#ffffff"
          d="M 21.914062 22.003906 L 25.34375 20.570312 L 34.445312 42.363281 L 31.011719 43.796875 Z M 21.914062 22.003906 "
          fill-opacity="1" fill-rule="nonzero" />
      </g>
    </g>
  </g>
  <g clip-path="url(#1e893bf66d)">
    <g clip-path="url(#e8a417c77e)">
      <g clip-path="url(#33ae133bda)">
        <path fill="#ffffff"
          d="M 36.464844 42.070312 L 32.253906 40.070312 L 42.019531 19.496094 L 46.230469 21.496094 Z M 36.464844 42.070312 "
          fill-opacity="1" fill-rule="nonzero" />
      </g>
    </g>
  </g>
  <g clip-path="url(#d404330657)">
    <g clip-path="url(#45697c8a85)">
      <path fill="#111010"
        d="M 34.445312 29.511719 L 49.082031 29.511719 L 49.082031 45.464844 L 34.445312 45.464844 Z M 34.445312 29.511719 "
        fill-opacity="1" fill-rule="nonzero" />
    </g>
  </g>
  <g clip-path="url(#191ccacb16)">
    <g clip-path="url(#5e26fa4963)">
      <path fill="#111010"
        d="M 18.820312 29.976562 L 31.929688 29.976562 L 31.929688 45.492188 L 18.820312 45.492188 Z M 18.820312 29.976562 "
        fill-opacity="1" fill-rule="nonzero" />
    </g>
  </g>
  <g clip-path="url(#8ebbedb2d1)">
    <g clip-path="url(#949a03c536)">
      <path fill="#111010"
        d="M 39.152344 39.570312 L 27.210938 39.570312 L 27.210938 24.367188 L 39.152344 24.367188 Z M 39.152344 39.570312 "
        fill-opacity="1" fill-rule="nonzero" />
    </g>
  </g>
</svg>